<?xml version="1.0" encoding="UTF-8"?>
<svg xmlns="http://www.w3.org/2000/svg" xmlns:xlink="http://www.w3.org/1999/xlink" width="2000px" height="557px" viewBox="0 0 2000 557" version="1.1">
<g id="surface1">
<path style=" stroke:none;fill-rule:nonzero;fill:rgb(85.09804%,30.588236%,15.686275%);fill-opacity:1;" d="M 938.566406 428.285156 C 925.164062 428.285156 913.238281 426.589844 902.78125 423.203125 C 892.320312 419.816406 884.074219 415.335938 878.050781 409.769531 C 878.804688 395.019531 880.386719 379.324219 882.792969 362.6875 C 885.199219 346.054688 888.132812 330.0625 891.597656 314.707031 C 895.058594 299.355469 898.597656 286.335938 902.210938 275.648438 C 896.941406 259.695312 892.3125 241.703125 888.324219 221.679688 C 884.335938 201.660156 880.761719 181.640625 877.601562 161.621094 C 874.4375 141.597656 871.503906 123.683594 868.796875 107.882812 C 871.652344 103.515625 876.582031 99.074219 883.582031 94.5625 C 890.582031 90.042969 899.050781 86.242188 908.988281 83.152344 C 918.925781 80.070312 929.460938 78.53125 940.601562 78.53125 C 947.675781 78.53125 954.335938 79.207031 960.578125 80.554688 C 966.828125 81.914062 972.664062 84.246094 978.082031 87.558594 L 961.824219 275.875 C 965.289062 275.417969 969.050781 274.964844 973.113281 274.515625 C 977.175781 274.066406 981.390625 273.617188 985.757812 273.164062 C 991.628906 262.023438 997.914062 249.113281 1004.613281 234.4375 C 1011.3125 219.761719 1017.371094 205.425781 1022.789062 191.425781 C 1028.210938 177.425781 1031.898438 165.835938 1033.851562 156.652344 L 1002.015625 145.367188 C 1003.671875 129.257812 1007.773438 114.582031 1014.324219 101.332031 C 1020.867188 88.085938 1029.558594 78.980469 1040.398438 74.011719 C 1046.871094 74.011719 1055.453125 75.289062 1066.140625 77.847656 C 1076.828125 80.410156 1087.777344 84.585938 1098.992188 90.382812 C 1110.210938 96.175781 1119.730469 104.039062 1127.554688 113.976562 C 1126.199219 125.414062 1122.886719 137.984375 1117.617188 151.683594 C 1112.351562 165.382812 1105.878906 179.421875 1098.203125 193.796875 C 1090.527344 208.171875 1082.363281 222.210938 1073.707031 235.910156 C 1065.050781 249.601562 1056.65625 262.171875 1048.523438 273.617188 C 1051.6875 279.632812 1055.640625 286.933594 1060.382812 295.515625 C 1065.128906 304.097656 1070.246094 312.527344 1075.742188 320.808594 C 1081.234375 329.085938 1086.691406 335.855469 1092.109375 341.125 C 1097.226562 339.320312 1102.347656 336.683594 1107.464844 333.222656 C 1112.578125 329.757812 1117.617188 325.921875 1122.585938 321.710938 L 1149.230469 344.742188 C 1149.230469 356.632812 1146.9375 368.371094 1142.351562 379.964844 C 1137.757812 391.554688 1132.976562 400.960938 1128.007812 408.195312 C 1123.34375 414.960938 1117.550781 419.964844 1110.625 423.203125 C 1103.699219 426.441406 1096.023438 428.058594 1087.589844 428.058594 C 1079.007812 428.058594 1069.828125 426.476562 1060.046875 423.316406 C 1051.015625 420.460938 1043.5625 414.851562 1037.6875 406.496094 C 1031.820312 398.140625 1026.929688 388.769531 1023.015625 378.382812 C 1019.554688 369.199219 1016.65625 359.152344 1014.324219 348.242188 C 1011.988281 337.328125 1010.21875 327.730469 1009.019531 319.449219 C 1001.636719 318.851562 994.070312 318.246094 986.320312 317.640625 C 978.570312 317.039062 971.535156 316.367188 965.210938 315.617188 C 968.070312 331.871094 970.742188 348.992188 973.226562 366.980469 C 975.707031 384.96875 977.476562 402.46875 978.53125 419.480469 C 973.710938 422.644531 967.839844 424.898438 960.914062 426.25 C 953.996094 427.605469 946.546875 428.285156 938.566406 428.285156 "/>
</g>
</svg>
